<?xml version="1.0" encoding="UTF-8" ?>
<!DOCTYPE svg PUBLIC "-//W3C//DTD SVG 1.1//EN" "http://www.w3.org/Graphics/SVG/1.1/DTD/svg11.dtd">
<svg width="256pt" height="256pt" viewBox="0 0 256 256" version="1.1" xmlns="http://www.w3.org/2000/svg">
<g id="#012970ff">
<path fill="#012970" opacity="1.00" d=" M 127.34 22.54 C 127.27 18.55 127.26 14.56 127.36 10.57 C 128.94 10.60 130.53 10.63 132.12 10.64 C 132.15 14.62 132.12 18.60 132.18 22.58 C 135.50 22.60 138.82 22.65 142.14 22.63 C 142.06 24.22 141.98 25.80 141.88 27.39 C 138.63 27.40 135.38 27.38 132.13 27.32 C 132.16 34.57 132.13 41.82 132.13 49.06 C 132.07 50.61 132.70 52.06 133.28 53.46 C 140.80 71.12 148.32 88.78 155.71 106.49 C 137.71 106.46 119.71 106.44 101.71 106.50 C 109.98 88.21 118.26 69.93 126.57 51.65 C 127.11 50.49 127.36 49.27 127.31 48.00 C 127.33 41.15 127.22 34.31 127.36 27.47 C 124.02 27.33 120.67 27.37 117.32 27.39 C 117.32 25.80 117.30 24.21 117.28 22.63 C 120.63 22.63 123.99 22.65 127.34 22.54 Z" />
<path fill="#012970" opacity="1.00" d=" M 100.36 112.35 C 119.30 112.56 138.24 112.38 157.18 112.44 C 157.10 126.30 157.15 140.17 157.15 154.04 C 156.88 155.43 158.40 156.03 159.25 156.78 C 171.80 165.96 184.68 174.71 197.04 184.14 C 197.44 191.41 197.08 198.73 197.18 206.02 C 196.87 207.44 198.50 207.89 199.38 208.55 C 208.81 213.88 218.21 219.30 227.63 224.66 C 227.81 231.50 227.62 238.34 227.73 245.18 C 202.69 245.31 177.66 245.46 152.62 245.34 C 152.60 233.93 152.66 222.52 152.60 211.10 C 152.27 203.75 149.86 195.89 143.97 191.10 C 139.55 187.39 133.70 185.92 128.03 185.85 C 120.06 186.03 112.69 191.34 109.52 198.57 C 106.29 205.58 106.59 213.48 106.55 221.02 C 106.66 229.07 106.35 237.12 106.73 245.16 C 80.67 245.82 54.57 244.95 28.49 245.36 C 28.13 238.45 28.24 231.49 28.44 224.57 C 38.30 219.09 48.02 213.37 57.85 207.85 C 58.84 207.18 60.56 206.65 60.17 205.09 C 60.24 197.56 60.05 190.03 60.25 182.50 C 73.73 173.21 87.09 163.71 100.36 154.11 C 100.26 140.19 100.26 126.27 100.36 112.35 M 119.71 134.01 C 119.73 139.90 119.48 145.79 119.55 151.69 C 126.05 151.79 132.55 151.70 139.05 151.74 C 139.07 146.49 139.04 141.25 139.08 136.01 C 139.15 133.22 138.73 130.24 136.93 128.00 C 134.20 125.09 129.80 124.38 126.04 125.23 C 122.13 126.12 119.89 130.25 119.71 134.01 Z" />
</g>
</svg>
